<?xml version="1.0" encoding="UTF-8" standalone="no"?>
<!-- Created with Inkscape (http://www.inkscape.org/) -->

<svg
   xmlns:dc="http://purl.org/dc/elements/1.1/"
   xmlns:cc="http://creativecommons.org/ns#"
   xmlns:rdf="http://www.w3.org/1999/02/22-rdf-syntax-ns#"
   xmlns:svg="http://www.w3.org/2000/svg"
   xmlns="http://www.w3.org/2000/svg"
   xmlns:sodipodi="http://sodipodi.sourceforge.net/DTD/sodipodi-0.dtd"
   xmlns:inkscape="http://www.inkscape.org/namespaces/inkscape"
   id="svg2"
   version="1.1"
   inkscape:version="0.91 r13725"
   width="711.40698"
   height="64.953499"
   viewBox="0 0 711.40699 64.953499"
   sodipodi:docname="metHDlogo.svg"
   inkscape:export-filename="C:\Users\Cathasach\Desktop\Bootcamp\Homework\Homework7\Telefunding_Callbacks_App\assets\images\metlogo.png"
   inkscape:export-xdpi="72.051544"
   inkscape:export-ydpi="72.051544">
  <metadata
     id="metadata8">
    <rdf:RDF>
      <cc:Work
         rdf:about="">
        <dc:format>image/svg+xml</dc:format>
        <dc:type
           rdf:resource="http://purl.org/dc/dcmitype/StillImage" />
        <dc:title></dc:title>
      </cc:Work>
    </rdf:RDF>
  </metadata>
  <defs
     id="defs6" />
  <sodipodi:namedview
     pagecolor="#ffffff"
     bordercolor="#666666"
     borderopacity="1"
     objecttolerance="10"
     gridtolerance="10"
     guidetolerance="10"
     inkscape:pageopacity="0"
     inkscape:pageshadow="2"
     inkscape:window-width="1536"
     inkscape:window-height="841"
     id="namedview4"
     showgrid="false"
     fit-margin-top="0"
     fit-margin-left="0"
     fit-margin-right="0"
     fit-margin-bottom="0"
     inkscape:zoom="1.6220736"
     inkscape:cx="362.42111"
     inkscape:cy="19.075057"
     inkscape:window-x="-8"
     inkscape:window-y="-8"
     inkscape:window-maximized="1"
     inkscape:current-layer="svg2" />
  <g
     id="g4154"
     transform="translate(-2.8929971,-2.906101)">
    <path
       style="fill:#9e9e9e"
       d="m 588.80767,66.875787 c -0.48754,-1.270518 0.44528,-2.115462 2.88672,-2.614794 l 2.00559,-0.410184 0,-19.448353 0,-19.448353 -1.5,-0.351648 c -1.63368,-0.382986 -2.46635,-2.84512 -1.09208,-3.229174 5.45822,-1.525353 8.53591,-1.64091 9.50444,-0.356862 l 0.98802,1.309811 2.6064,-1.329674 c 12.50022,-6.377138 24.89322,6.343779 20.04432,20.574631 -2.6505,7.778739 -13.7109,12.767064 -20.47128,9.232705 -1.05612,-0.55214 -2.0775,-1.00389 -2.26968,-1.00389 -0.19218,0 -0.27312,3.008704 -0.17982,6.686009 0.1821,7.174676 0.11094,7.02167 3.76968,8.1083 1.2123,0.360054 1.8,0.92166 1.8,1.72014 0,1.65012 -17.46655,2.19204 -18.09231,0.561336 z m 23.80137,-20.225785 c 6.40416,-4.352084 6.18168,-19.676674 -0.32514,-22.395386 -4.23672,-1.770207 -8.6106,-0.212714 -10.22004,3.639252 -1.02288,2.448107 -1.20534,14.747046 -0.24534,16.540749 1.71162,3.198187 7.57344,4.401662 10.79052,2.215385 z M 312.11113,66.150003 c 0.11843,-0.62448 0.84793,-1.125222 1.80008,-1.235616 3.09045,-0.358308 3.14967,-0.71064 3.39602,-20.205443 0.24707,-19.552445 0.12322,-20.487668 -2.75701,-20.819068 -2.59577,-0.29867 -2.08153,-1.92211 0.74977,-2.366956 1.32,-0.207395 3.2305,-0.569244 4.24554,-0.804109 1.56112,-0.361216 1.99878,-0.193155 2.83987,1.090507 l 0.99432,1.517534 2.86014,-1.612004 c 9.65392,-5.441065 20.67207,1.658517 20.71437,13.347384 0.0392,10.82666 -10.11326,19.030511 -19.3605,15.644582 -5.28097,-1.93366 -4.79483,-2.459289 -4.78455,5.17321 0.0103,7.672033 0.21786,8.272549 3.05963,8.853751 1.21272,0.248028 2.10314,0.825228 2.22155,1.440084 0.17867,0.927714 -0.58777,1.026144 -7.99037,1.026144 -7.47394,0 -8.17062,-0.09157 -7.98886,-1.05 z m 22.04718,-18.428451 c 5.62041,-2.906426 7.92373,-12.981769 4.52255,-19.78283 -3.08855,-6.175913 -10.80035,-6.784867 -14.49827,-1.14484 -1.75751,2.680541 -1.95113,16.125344 -0.26309,18.269129 2.51237,3.190667 6.97104,4.348375 10.23881,2.658541 z m -122.95832,3.947607 c -17.38281,-3.718868 -15.33,-29.790904 2.53847,-32.24005 6.54214,-0.8967 13.06153,3.755178 13.06153,9.319986 0,2.689767 -1.30925,3.050906 -11.06055,3.050906 l -8.73945,0 0.004,2.85 c 0.0119,10.190477 7.75104,15.52972 14.9505,10.314456 4.12044,-2.984828 6.41883,-1.325544 3.29927,2.381847 -3.0108,3.578131 -8.96828,5.410702 -14.05311,4.322855 z m 8.09234,-24.056758 c 0.40483,-0.655037 -0.71004,-3.070723 -1.73216,-3.753212 -2.5343,-1.6922 -8.76018,0.81134 -8.76018,3.522631 0,0.982082 9.89351,1.199504 10.49234,0.230581 z m 18.5746,23.972802 C 233.46718,50.2437 233.12107,49.1914 232.91333,36.52442 l -0.18665,-11.381994 -1.46335,-0.556362 c -2.06079,-0.783514 -1.81885,-2.05777 0.66945,-3.525907 1.48905,-0.878565 2.59489,-2.267744 3.66382,-4.602585 2.48246,-5.422417 4.70339,-5.063646 4.70339,0.75979 l 0,3.344109 3.53187,0.06926 c 6.4704,0.126894 6.6248,3.969265 0.1595,3.969265 l -3.84629,0 -0.43219,8.645471 c -0.2377,4.755009 -0.2484,9.482255 -0.0238,10.504991 0.66848,3.043568 4.00203,4.069296 6.01088,1.849539 2.16109,-2.387979 4.03381,-0.82009 2.7429,2.296433 -1.27323,3.07385 -6.55303,4.915378 -10.57596,3.688768 z m 402.76355,-0.04015 c -15.48528,-3.646354 -15.4152,-27.027488 0.0945,-31.536283 7.4538,-2.166882 14.5518,1.386661 15.94512,7.982802 0.6894,3.263631 -0.87036,3.808425 -10.90362,3.808425 l -8.5665,0 0,4.050001 c 0,6.947085 3.2715,10.95236 8.93778,10.947757 2.55882,-0.0021 3.82026,-0.532953 7.32972,-3.084594 3.4158,-2.483593 3.65478,1.399548 0.28482,4.628542 -3.54414,3.395898 -7.84578,4.445944 -13.12278,3.20335 z m 8.5695,-24.647811 c 0,-3.644651 -5.51088,-4.841066 -8.95398,-1.943909 -3.17622,2.672628 -2.54784,3.246664 3.55398,3.246664 5.142,0 5.4,-0.06225 5.4,-1.302755 z M 99.651345,50.966009 C 91.422105,49.297219 86.775244,40.23724 89.329042,30.840625 92.676327,18.524382 111.32,15.81575 114.71649,27.152228 c 1.04723,3.495336 0.53527,3.704779 -9.89428,4.047773 l -9.122213,0.3 -0.201636,2.7 c -0.48075,6.437532 2.37411,11.842376 6.848349,12.965339 2.83187,0.710754 6.84045,-0.128531 8.58172,-1.796776 3.22193,-3.086803 4.97584,-1.410678 2.10009,2.006953 -2.83304,3.366884 -7.8455,4.712249 -13.377175,3.590492 z M 108.38353,27.89866 c 1.45672,-3.796144 -4.21237,-6.562499 -8.696515,-4.243657 -1.714884,0.886799 -3.358308,3.62063 -2.759232,4.58996 0.619344,1.002119 11.059417,0.68652 11.455747,-0.346303 z m 180.69994,22.891082 c -2.97317,-0.831016 -3.76764,-1.315301 -6.98606,-4.258442 -14.26292,-13.043025 4.7544,-34.455009 20.94028,-23.577073 13.98865,9.401266 2.44899,32.420296 -13.95422,27.835515 z m 7.57854,-3.035202 c 9.35651,-3.909399 6.69225,-24.960175 -3.15806,-24.952296 -5.73814,0.0046 -8.59553,3.634058 -8.99016,11.41936 -0.5413,10.678797 4.78322,16.610231 12.14822,13.532936 z m 67.83798,3.310966 c -14.5746,-3.794613 -17.19238,-23.198289 -3.96418,-29.383484 11.54533,-5.398322 24.52734,3.128339 23.2815,15.291417 -0.93923,9.169558 -10.74604,16.323668 -19.31732,14.092067 z m 8.04805,-4.13428 c 5.97495,-4.453106 5.67352,-19.46061 -0.46367,-23.085939 -6.37452,-3.765517 -12.50368,0.789807 -13.14625,9.770567 -0.81786,11.43079 6.51398,18.603959 13.60992,13.315372 z m 59.63969,4.020453 c -4.04361,-1.19775 -4.38774,-2.377941 -4.38774,-15.047443 l 0,-11.333936 -1.5,-0.570299 c -1.94908,-0.74104 -1.86535,-1.240888 0.4523,-2.7 1.11736,-0.703461 2.58807,-2.565483 3.55427,-4.5 2.20853,-4.421877 3.14594,-4.296779 3.37206,0.45 0.11391,2.39139 0.43998,3.765045 0.9,3.791528 0.39675,0.02284 2.20637,0.09034 4.02137,0.15 2.86384,0.09414 3.3,0.267075 3.3,1.308472 0,1.057143 -0.5,1.235714 -4.2,1.5 l -4.2,0.3 -0.16411,10.335893 c -0.15393,9.694873 -0.0888,10.41119 1.05,11.55 1.56576,1.565755 3.63447,1.542757 5.67598,-0.0631 1.99489,-1.569179 3.06501,-0.860666 2.18721,1.448125 -1.11648,2.93656 -6.00991,4.580826 -10.06134,3.38076 z m 120.36986,-0.140563 c -17.41966,-4.897148 -23.22667,-26.470804 -10.69252,-39.723828 15.9901,-16.9071766 45.42185,-4.9291109 44.21859,17.995982 -0.81425,15.513599 -17.39861,26.26172 -33.52607,21.727846 z m 14.82916,-4.714901 c 13.80397,-6.48863 12.34121,-33.36865 -2.06934,-38.0268777 -11.89889,-3.8463309 -21.68843,6.1244357 -20.94297,21.3306637 0.71804,14.646639 11.19749,22.249837 23.01231,16.696214 z m 120.99593,4.330238 c -3.66612,-2.235377 -4.02342,-8.070267 -0.74904,-12.232948 1.0641,-1.352778 7.33212,-4.758184 12.71634,-6.908736 1.44744,-0.578142 1.65,-0.980639 1.65,-3.278912 0,-5.425521 -5.08038,-6.47913 -9.18984,-1.905856 -3.42906,3.816051 -6.41016,3.524454 -6.41016,-0.627007 0,-6.388748 16.56972,-8.562914 21.73776,-2.852284 0.88968,0.983074 1.05786,2.738953 1.19856,12.511428 0.15816,10.985782 0.204,11.36151 1.36368,11.178822 3.30744,-0.521033 3.6,-0.434466 3.6,1.065142 0,3.970571 -7.23036,5.581469 -10.41798,2.321091 -1.70772,-1.746726 -1.94736,-1.826486 -2.92116,-0.972353 -3.44316,3.019951 -9.14988,3.791974 -12.57816,1.701613 z m 12.07416,-5.872483 c 1.63548,-1.426566 2.42364,-9.753969 0.92322,-9.753969 -1.67142,0 -6.6408,3.177007 -7.46628,4.773321 -2.90484,5.61735 1.75044,9.161032 6.54306,4.980648 z m -562.29365,5.405881 c -0.52556,-1.369598 0.64394,-2.83426 2.43412,-3.048428 3.79737,-0.454302 4.00269,-1.494096 4.00269,-20.271227 0,-18.6968335 0.0936,-18.2401956 -3.74056,-18.2401956 -2.30645,0 -4.28316,-3.4483453 -2.10944,-3.6798904 3.30381,-0.3519237 14.66488,0.3076983 15.20853,0.8830051 0.36219,0.3832868 2.47188,5.1518849 4.68819,10.5968859 2.21631,5.445 4.99447,12.2625 6.17369,15.15 1.92243,4.707375 3.17959,6.506009 3.17959,4.54909 0,-0.385502 1.52502,-4.098002 3.38893,-8.250001 1.86392,-4.151999 4.722,-10.519089 6.35129,-14.149089 1.6293,-3.6300006 3.34958,-7.0321201 3.82285,-7.5602659 1.07829,-1.2033123 13.20939,-2.0755062 14.45773,-1.0394725 1.82679,1.5160969 0.52892,2.8941679 -3.5439,3.76289 -2.49781,0.532779 -2.86981,3.0763404 -2.87356,19.6477884 -0.004,16.028463 0.25031,17.664896 2.82543,18.20804 2.65061,0.559067 3.47122,1.208331 3.47122,2.746413 l 0,1.434608 -10.1917,0 c -9.59853,0 -10.20471,-0.06753 -10.41525,-1.160342 -0.26379,-1.369273 1.38069,-2.739658 3.28761,-2.739658 2.92628,0 3.21934,-1.525105 3.21934,-16.753504 0,-8.357351 -0.21935,-13.854672 -0.53932,-13.516497 -0.29664,0.3135 -1.48122,2.73 -2.63241,5.37 -1.15119,2.64 -3.59689,8.175 -5.43489,12.3 -1.83801,4.125001 -3.99786,9.248874 -4.79968,11.386386 -2.35547,6.279242 -3.90673,6.326234 -6.31521,0.191303 -1.45657,-3.7102 -7.37616,-18.004013 -10.46568,-25.271078 -1.02729,-2.416363 -2.08043,-4.524798 -2.3403,-4.68541 -0.25988,-0.160612 -0.4725,6.143837 -0.4725,14.009885 0,15.500868 0.28208,16.968915 3.26055,16.968915 1.67151,0 2.91682,1.33531 2.63104,2.821177 -0.29229,1.51972 -15.95206,1.840593 -16.5284,0.338672 z m 310.8768,-0.999849 c -5.32898,-5.328979 -0.85083,-12.088672 10.79686,-16.297685 l 3.66314,-1.323713 0.17833,-3.315432 c 0.32296,-6.003977 -7.10757,-7.598562 -10.29152,-2.208555 -1.80757,3.059966 -5.18681,2.841876 -5.18681,-0.334747 0,-3.316557 4.53084,-5.389109 11.71992,-5.361071 9.30401,0.03629 10.533,1.915726 10.03182,15.341201 -0.43545,11.664895 0.0682,13.31166 3.42911,11.212715 1.43449,-0.895849 2.05817,-0.371029 1.53141,1.288651 -1.2513,3.942497 -9.23765,3.88436 -10.6739,-0.0777 -0.22812,-0.629297 -0.5061,-0.637166 -1.41122,-0.03995 -6.00179,3.960135 -10.57317,4.330259 -13.78714,1.116285 z m 13.68804,-4.375876 c 1.39385,-1.261412 1.5857,-9.624648 0.2327,-10.143841 -1.40244,-0.538165 -6.90936,2.646638 -8.18013,4.730786 -3.80382,6.238537 2.38071,10.450867 7.94743,5.413055 z m 196.95359,5.897521 c -0.94944,-0.949468 -0.0366,-2.587669 1.96836,-3.531645 l 2.25,-1.059443 0,-10.49528 0,-10.495278 -1.60608,-0.185617 c -4.97328,-0.574759 -3.23328,-3.202039 2.83464,-4.280199 4.67094,-0.829946 5.07588,-0.738612 5.81166,1.310783 0.0879,0.244731 1.48806,-0.227769 3.11148,-1.050001 4.5507,-2.30485 9.3483,-0.788962 9.3483,2.953782 0,2.12115 -2.75616,4.390909 -4.22538,3.479712 -0.64608,-0.400653 -1.67388,-1.037958 -2.28408,-1.416233 -4.14582,-2.570115 -6.19146,1.77562 -5.9613,12.663991 l 0.17076,8.076217 2.00556,0.409373 c 2.67666,0.546348 3.5628,1.46156 2.71554,2.804708 -0.62094,0.984462 -15.2322,1.722407 -16.13946,0.81513 z M 15.387058,49.510516 c -0.409732,-1.067744 0.792344,-2.110514 2.432942,-2.110514 3.657576,0 3.779999,-0.65955 3.779999,-20.364591 0,-20.4775721 0.480858,-18.9250331 -5.832399,-18.8309759 C 10.093547,8.2889692 7.9945396,9.4618264 5.9999998,13.662254 3.6743413,18.560006 2.695928,17.743813 2.9256353,11.097618 3.0281615,8.1311913 3.1960386,5.5681891 3.2986953,5.4020576 3.401352,5.235926 13.162381,5.1204276 24.989872,5.1453944 l 21.504528,0.045394 0.418222,2.354606 C 48.306924,15.395378 46.754709,19.593318 44.447789,14.211491 42.353254,9.3251374 36.534097,6.7986321 30.864771,8.314147 l -1.764772,0.4717554 -0.159084,17.9087086 -0.159086,17.908709 1.313674,1.398341 c 0.72252,0.769087 1.874108,1.402476 2.559084,1.407529 1.777342,0.01311 2.976863,0.922231 2.580312,1.955624 -0.464917,1.211556 -19.385535,1.350451 -19.847841,0.145702 z m 36.339804,-0.245344 c -0.188516,-0.491263 -0.09168,-0.981112 0.215191,-1.088553 0.30687,-0.107441 1.232946,-0.536505 2.057945,-0.953477 l 1.5,-0.75813 0.158535,-19.110744 C 55.827088,7.0356387 55.798752,6.8203989 52.911221,6.4856169 50.828511,6.2441463 50.384105,4.3605247 52.310132,3.9378938 53.074559,3.7701546 55.454998,3.5580079 57.599998,3.4664568 l 3.9,-0.1664567 0,9.9977029 c 0,11.366164 -0.02376,11.293011 3.00075,9.240525 4.311732,-2.926019 8.163462,-3.3951 12.12618,-1.47678 4.213656,2.039795 4.664028,3.47116 4.474014,14.219282 -0.190602,10.781334 -0.09202,11.231138 2.660664,12.139604 4.631862,1.528653 2.414766,2.679668 -5.161608,2.679668 -7.397934,0 -9.711126,-1.107227 -5.430636,-2.599414 l 1.830636,-0.638163 0,-10.487663 0,-10.487665 -1.580916,-1.243548 c -5.673174,-4.462519 -11.582262,1.399842 -12.09255,11.996923 -0.39885,8.282972 -0.0024,9.909373 2.62608,10.776895 1.443414,0.476368 2.05299,1.010415 1.923114,1.684817 -0.270414,1.404133 -13.613609,1.55784 -14.148864,0.162988 z m 201.136088,0.597789 c -0.73647,-0.736467 -0.0901,-1.883477 1.25104,-2.220086 2.91741,-0.732224 3.286,-2.107614 3.286,-12.2617 0,-9.79249 -0.30051,-11.071198 -2.7,-11.488775 -2.5755,-0.448208 -1.20122,-1.909187 2.58751,-2.75073 4.28072,-0.950824 5.51249,-0.718546 5.51249,1.0395 0,1.542239 0.15109,1.529327 2.86287,-0.244648 5.42559,-3.549293 10.71066,-1.897046 9.48991,2.966792 -0.51106,2.036241 -2.547,2.499187 -4.1925,0.953321 -2.78178,-2.613356 -7.07103,-0.631801 -7.8495,3.626329 -0.20282,1.10937 -0.28821,5.363167 -0.18977,9.45288 0.19232,7.989436 0.2041,8.01754 3.66886,8.749858 1.17787,0.248959 1.62985,0.668805 1.49179,1.385737 -0.18662,0.969047 -14.30679,1.703434 -15.2187,0.791522 z m 134.35776,-0.191229 c -0.46846,-0.757988 0.95267,-2.27173 2.13274,-2.27173 2.3499,0 2.44654,-0.807637 2.44654,-20.446534 0,-20.2682605 0.0356,-20.0252005 -2.99387,-20.4459769 -0.82302,-0.1143138 -1.58189,-0.6693823 -1.68987,-1.2360539 -0.22387,-1.1748719 0.6132,-1.4259727 6.6262,-1.9876965 l 4.04247,-0.3776397 0.15753,21.796951 0.15754,21.79695 1.97137,0.867464 c 1.19198,0.524509 1.90138,1.230894 1.79434,1.786717 -0.19959,1.036381 -14.02242,1.524875 -14.64499,0.517549 z m 19.70091,-0.688247 c 0.11565,-0.786195 0.83933,-1.382886 2.05811,-1.69697 2.45452,-0.632533 2.60219,-1.323456 2.61207,-12.221836 0.009,-9.706601 -0.29089,-10.825715 -2.99181,-11.172233 -3.04243,-0.390333 -1.61767,-1.868321 2.62825,-2.72644 6.15255,-1.243457 5.77175,-2.057719 5.77175,12.341697 0,13.122537 0.0725,13.498154 2.7,13.985951 0.71706,0.133125 1.2,0.697043 1.2,1.401233 0,1.101206 -0.46397,1.182472 -7.07837,1.239802 -6.77848,0.05875 -7.07081,0.01 -6.9,-1.151204 z m 72.636,0.361872 c -0.37079,-0.966268 0.79988,-1.922136 2.37126,-1.936167 1.87643,-0.01676 2.27111,-2.136273 2.27111,-12.196277 0,-10.496074 -0.10864,-10.905467 -3,-11.305421 -2.84175,-0.393091 -1.67655,-1.875424 2.1,-2.671544 4.79433,-1.010674 5.68603,-1.001184 6.01882,0.06405 0.15465,0.495 0.40588,1.300249 0.55829,1.789442 0.22068,0.708282 0.91258,0.494421 3.39703,-1.05 5.40448,-3.359611 11.7368,-2.563569 14.73417,1.852248 0.96506,1.421764 1.07364,2.768381 0.93611,11.609881 -0.16514,10.616953 0.13911,11.89843 2.82496,11.89843 1.32916,0 2.51221,1.315022 1.9463,2.163402 -0.72847,1.092061 -14.16446,0.717234 -14.37984,-0.401158 -0.10888,-0.565356 0.5909,-1.265914 1.79278,-1.79478 l 1.97138,-0.867464 0.16501,-9.781142 0.16501,-9.781142 -1.76886,-1.768859 c -3.05042,-3.050424 -7.67728,-2.037483 -10.35324,2.266596 -1.30235,2.094743 -1.40792,2.894406 -1.40792,10.664547 l 0,8.4 1.97137,0.867464 c 1.19851,0.527381 1.90157,1.229928 1.79332,1.792016 -0.25556,1.327025 -13.60168,1.502873 -14.10706,0.185875 z M 411.59999,10.2 c -2.36301,-2.3630073 -0.81463,-5.9999998 2.55438,-5.9999998 2.02746,0 3.44562,1.4610683 3.44562,3.5498647 0,3.2733011 -3.6758,4.7743361 -6,2.4501351 z"
       id="path4158"
       inkscape:connector-curvature="0" />
    <path
       style="fill:#1f1f1f"
       d="m 590.11015,66.616461 c -0.332,-0.537198 0.37896,-0.941034 3.69201,-2.097078 1.16714,-0.407256 1.46655,-5.820333 1.27782,-23.101957 l -0.18,-16.482576 -1.5,-0.747536 c -2.60205,-1.29675 -1.79679,-2.247563 2.37692,-2.806557 2.18264,-0.292326 3.95682,-0.292326 4.05976,0 0.74874,2.126439 1.21524,2.179942 4.59402,0.526878 10.18848,-4.984761 19.87896,1.578667 19.86336,13.453607 -0.015,11.316912 -10.80942,18.872514 -20.60958,14.425583 -1.43856,-0.652753 -2.72106,-1.186823 -2.85,-1.186823 -0.12894,0 -0.23448,3.35969 -0.23448,7.465978 0,8.147877 0.51894,9.334023 4.08348,9.334023 0.86604,0 1.3197,0.291456 1.16742,0.75 -0.31986,0.963174 -15.16191,1.402998 -15.74073,0.466458 z M 614.41288,46.32825 c 7.45902,-7.458969 3.6732,-23.550969 -5.53308,-23.519404 -6.5814,0.02257 -8.27982,2.868969 -8.27982,13.876122 l 0,8.307507 2.49,1.803764 c 3.86808,2.802023 8.23332,2.621603 11.3229,-0.467989 z m -404.41677,4.111148 c -9.68746,-2.946791 -12.9239,-14.630176 -6.70091,-24.189974 5.09864,-7.832567 18.82641,-7.8489 22.09491,-0.02629 1.72347,4.124835 1.30943,4.326227 -9.27577,4.51181 l -9.41435,0.165053 -0.18517,3.6 c -0.5743,11.165443 7.86715,16.984129 16.04523,11.05996 2.85064,-2.064996 3.03994,-2.106855 3.03994,-0.672214 0,4.017053 -9.51718,7.40314 -15.60388,5.551651 z m 9.45388,-21.967567 c 1.04068,-0.324924 0.93842,-2.73583 -0.18402,-4.338326 -1.59054,-2.27082 -7.34029,-1.930113 -9.79478,0.580399 -1.73492,1.774513 -2.33602,3.421273 -1.53956,4.217728 0.34475,0.344753 10.20177,-0.04873 11.51836,-0.459801 z m 17.55,21.795189 c -3.05083,-1.593985 -3.59804,-3.957788 -3.59907,-15.54704 l -9.3e-4,-10.580021 -1.35,-0.355362 c -1.29519,-0.340933 -1.26053,-0.429255 0.85357,-2.175388 1.21196,-1.001015 2.8126,-3.167593 3.55696,-4.814618 1.9234,-4.255857 2.93947,-3.94289 2.93947,0.90541 l 0,3.9 3.86459,0 c 6.26496,0 5.75536,2.190598 -0.58534,2.516201 l -3.57925,0.183799 -0.16488,10.132604 c -0.19338,11.883909 0.14128,12.967397 4.00525,12.967397 1.32376,0 2.6321,-0.38485 3.05963,-0.9 1.01167,-1.21898 1.8,-1.133396 1.8,0.195412 0,3.154057 -7.10317,5.503106 -10.8,3.571606 z M 553.79998,50.141418 C 528.677,43.150872 530.37165,9.8870182 556.12678,4.4694257 c 14.69954,-3.0920481 29.07556,8.4916883 29.13726,23.4778703 0.0624,15.157336 -16.00977,26.494324 -31.46406,22.194122 z m 12.12317,-2.473982 c 15.37666,-5.239356 15.84622,-34.939958 0.63434,-40.1231689 -13.29111,-4.528736 -23.47258,5.1782039 -22.84366,21.7789769 0.55304,14.597622 10.08898,22.474007 22.20932,18.344192 z m 72.77683,2.430437 c -9.87414,-3.49485 -11.85186,-18.938603 -3.35652,-26.210292 6.3183,-5.408225 16.5879,-4.558768 19.51722,1.614383 2.17344,4.580087 1.836,4.77641 -8.53152,4.963777 l -9.17082,0.16574 -0.5892,1.549649 c -0.88914,2.338664 -0.0156,8.975719 1.46784,11.15406 3.38178,4.965437 9.58134,6.018857 14.09154,2.39439 2.78064,-2.234607 3.07146,-2.31431 3.07146,-0.841833 0,4.37225 -9.9714,7.520867 -16.5,5.210126 z m 11.01366,-21.652907 c 1.00356,-0.315941 0.43548,-3.053769 -0.9534,-4.594965 -1.8672,-2.071953 -7.48314,-1.451836 -9.6981,1.070878 -1.79538,2.044811 -2.25732,3.283946 -1.50486,4.036446 0.3723,0.37226 10.73352,-0.06444 12.15636,-0.512359 z m 39.68634,21.504104 c -2.95338,-1.475386 -3.89922,-4.457115 -2.6121,-8.234618 1.29042,-3.787149 5.1459,-6.521623 12.6621,-8.980419 l 3.15,-1.030471 0,-3.458788 c 0,-6.160825 -5.74116,-7.874594 -10.2,-3.044773 -2.40534,2.605461 -4.49472,3.10707 -5.0928,1.222664 -1.98582,-6.256832 16.19592,-8.832488 20.36202,-2.884518 0.76038,1.085542 0.93078,3.380045 0.93078,12.531165 0,11.968206 0.22482,12.815935 3.00402,11.328538 2.2719,-1.215897 2.63844,0.622482 0.4146,2.079593 -3.05172,1.999562 -5.0571,1.861647 -7.28544,-0.501024 -2.30772,-2.446901 -2.8341,-2.601981 -4.00974,-1.18133 -2.35482,2.845658 -7.8474,3.890464 -11.32344,2.153981 z m 10.2165,-3.53685 c 0.81594,-0.543281 1.821,-1.404885 2.2335,-1.914679 0.9447,-1.167541 1.0455,-10.89754 0.11286,-10.89754 -1.8141,0 -7.37304,3.316166 -8.4102,5.017029 -3.3525,5.498014 1.03776,11.141783 6.06384,7.79519 z M 139.2,48.966142 c 0,-0.478936 0.77609,-1.041252 1.72465,-1.249591 4.0049,-0.879624 4.07994,-1.214277 4.51091,-20.11655 C 145.87695,8.2411275 145.87329,8.2219695 141.6033,7.5005595 140.12521,7.2508371 139.2,6.7683477 139.2,6.2472615 c 0,-1.185875 12.73063,-1.2325579 13.90714,-0.051 0.732,0.7351458 2.83093,5.6410675 10.56915,24.7037365 3.02094,7.441906 4.09051,8.576585 5.09015,5.400001 1.96198,-6.234682 13.02532,-29.6485073 14.34411,-30.3570557 1.66031,-0.8920381 12.48944,-0.6903471 12.48944,0.232614 0,0.4265562 -1.16511,1.0871766 -2.58913,1.468044 -3.93735,1.0530805 -4.01087,1.4291863 -4.01087,20.5181617 0,18.569577 0.0198,18.665698 4.05281,19.657837 4.40404,1.083416 2.06157,1.683647 -7.20281,1.845638 -7.82277,0.136783 -9.44999,0.01913 -9.44999,-0.683226 0,-0.488031 0.85709,-1.009253 2.01762,-1.22697 3.75169,-0.703821 3.78685,-0.856601 4.18452,-18.181028 0.22309,-9.718954 0.14282,-15.860815 -0.21014,-16.078957 -0.84105,-0.519792 -7.9439,14.734786 -15.02839,32.275997 -1.77582,4.396924 -2.66157,4.249569 -4.63478,-0.771052 -0.84303,-2.145 -3.10689,-7.603602 -5.03081,-12.130227 C 155.77411,28.34315 154.2,24.474414 154.2,24.272582 c 0,-0.919613 -5.03131,-11.072581 -5.48702,-11.072581 -0.28215,0 -0.51298,7.103395 -0.51298,15.785322 0,17.269571 0.0469,17.518365 3.5239,18.689059 3.59825,1.211516 1.96459,1.823648 -5.32181,1.994088 C 140.4302,49.80816 139.2,49.688195 139.2,48.966142 Z m 521.41294,0.08386 c 0.007,-0.4125 0.88464,-1.155 1.95,-1.65 l 1.93704,-0.9 0,-11.094108 0,-11.094108 -1.7505,-0.305892 c -2.34108,-0.409098 -2.66424,-1.671289 -0.5421,-2.117702 0.9309,-0.195837 2.7621,-0.596553 4.06926,-0.89048 2.63988,-0.593607 3.92334,0.02001 3.92334,1.875756 0,1.372052 0.783,1.451929 1.83282,0.186971 3.28554,-3.958806 10.55418,-3.345408 10.04556,0.847739 -0.2868,2.364696 -1.81536,2.903254 -3.942,1.388927 -5.65698,-4.028139 -8.1105,0.273934 -7.81476,13.702897 l 0.17838,8.1 2.07336,0.670143 c 4.2993,1.389588 2.80944,2.029857 -4.72338,2.029857 -5.4069,0 -7.24668,-0.190662 -7.23702,-0.75 z"
       id="path4156"
       inkscape:connector-curvature="0" />
  </g>
</svg>
